<svg id="visual" viewBox="0 0 900 300" width="900" height="300" xmlns="http://www.w3.org/2000/svg" xmlns:xlink="http://www.w3.org/1999/xlink" version="1.1"><rect x="0" y="0" width="900" height="300" fill="#202731"></rect><path d="M0 244L13.7 237.7C27.3 231.3 54.7 218.7 82 215.7C109.3 212.7 136.7 219.3 163.8 221.5C191 223.7 218 221.3 245.2 220.5C272.3 219.7 299.7 220.3 327 211.5C354.3 202.7 381.7 184.3 409 177.3C436.3 170.3 463.7 174.7 491 185.8C518.3 197 545.7 215 573 215.7C600.3 216.3 627.7 199.7 654.8 197.8C682 196 709 209 736.2 210.2C763.3 211.3 790.7 200.7 818 197.3C845.3 194 872.7 198 886.3 200L900 202L900 0L886.3 0C872.7 0 845.3 0 818 0C790.7 0 763.3 0 736.2 0C709 0 682 0 654.8 0C627.7 0 600.3 0 573 0C545.7 0 518.3 0 491 0C463.7 0 436.3 0 409 0C381.7 0 354.3 0 327 0C299.7 0 272.3 0 245.2 0C218 0 191 0 163.8 0C136.7 0 109.3 0 82 0C54.7 0 27.3 0 13.7 0L0 0Z" fill="#202731"></path><path d="M0 142L13.7 155.5C27.3 169 54.7 196 82 207.5C109.3 219 136.7 215 163.8 210.8C191 206.7 218 202.3 245.2 196C272.3 189.7 299.7 181.3 327 174.8C354.3 168.3 381.7 163.7 409 161C436.3 158.3 463.7 157.7 491 165.8C518.3 174 545.7 191 573 201.2C600.3 211.3 627.7 214.7 654.8 212.2C682 209.7 709 201.3 736.2 201.7C763.3 202 790.7 211 818 213.5C845.3 216 872.7 212 886.3 210L900 208L900 0L886.3 0C872.7 0 845.3 0 818 0C790.7 0 763.3 0 736.2 0C709 0 682 0 654.8 0C627.7 0 600.3 0 573 0C545.7 0 518.3 0 491 0C463.7 0 436.3 0 409 0C381.7 0 354.3 0 327 0C299.7 0 272.3 0 245.2 0C218 0 191 0 163.8 0C136.7 0 109.3 0 82 0C54.7 0 27.3 0 13.7 0L0 0Z" fill="#172e4b"></path><path d="M0 186L13.7 183.7C27.3 181.3 54.7 176.7 82 169.7C109.3 162.7 136.7 153.3 163.8 147.5C191 141.7 218 139.3 245.2 142C272.3 144.7 299.7 152.3 327 159.5C354.3 166.7 381.7 173.3 409 173.7C436.3 174 463.7 168 491 167C518.3 166 545.7 170 573 168.8C600.3 167.7 627.7 161.3 654.8 156.7C682 152 709 149 736.2 147.3C763.3 145.7 790.7 145.3 818 143.3C845.3 141.3 872.7 137.7 886.3 135.8L900 134L900 0L886.3 0C872.7 0 845.3 0 818 0C790.7 0 763.3 0 736.2 0C709 0 682 0 654.8 0C627.7 0 600.3 0 573 0C545.7 0 518.3 0 491 0C463.7 0 436.3 0 409 0C381.7 0 354.3 0 327 0C299.7 0 272.3 0 245.2 0C218 0 191 0 163.8 0C136.7 0 109.3 0 82 0C54.7 0 27.3 0 13.7 0L0 0Z" fill="#063365"></path><path d="M0 160L13.7 153.7C27.3 147.3 54.7 134.7 82 133.5C109.3 132.3 136.7 142.7 163.8 142.3C191 142 218 131 245.2 127.7C272.3 124.3 299.7 128.7 327 136C354.3 143.3 381.7 153.7 409 155.3C436.3 157 463.7 150 491 147.5C518.3 145 545.7 147 573 150.3C600.3 153.7 627.7 158.3 654.8 155.8C682 153.3 709 143.7 736.2 140.7C763.3 137.7 790.7 141.3 818 141C845.3 140.7 872.7 136.3 886.3 134.2L900 132L900 0L886.3 0C872.7 0 845.3 0 818 0C790.7 0 763.3 0 736.2 0C709 0 682 0 654.8 0C627.7 0 600.3 0 573 0C545.7 0 518.3 0 491 0C463.7 0 436.3 0 409 0C381.7 0 354.3 0 327 0C299.7 0 272.3 0 245.2 0C218 0 191 0 163.8 0C136.7 0 109.3 0 82 0C54.7 0 27.3 0 13.7 0L0 0Z" fill="#00387f"></path><path d="M0 114L13.7 112.2C27.3 110.3 54.7 106.7 82 101C109.3 95.3 136.7 87.7 163.8 93C191 98.3 218 116.7 245.2 124C272.3 131.3 299.7 127.7 327 121.8C354.3 116 381.7 108 409 106.3C436.3 104.7 463.7 109.3 491 112.5C518.3 115.7 545.7 117.3 573 113.2C600.3 109 627.7 99 654.8 100.7C682 102.3 709 115.7 736.2 117C763.3 118.3 790.7 107.7 818 103.3C845.3 99 872.7 101 886.3 102L900 103L900 0L886.3 0C872.7 0 845.3 0 818 0C790.7 0 763.3 0 736.2 0C709 0 682 0 654.8 0C627.7 0 600.3 0 573 0C545.7 0 518.3 0 491 0C463.7 0 436.3 0 409 0C381.7 0 354.3 0 327 0C299.7 0 272.3 0 245.2 0C218 0 191 0 163.8 0C136.7 0 109.3 0 82 0C54.7 0 27.3 0 13.7 0L0 0Z" fill="#003a98"></path><path d="M0 67L13.7 71.8C27.3 76.7 54.7 86.3 82 90.8C109.3 95.3 136.7 94.7 163.8 88.5C191 82.3 218 70.7 245.2 71.7C272.3 72.7 299.7 86.3 327 86.8C354.3 87.3 381.7 74.7 409 73.5C436.3 72.3 463.7 82.7 491 89.5C518.3 96.3 545.7 99.7 573 99.7C600.3 99.7 627.7 96.3 654.8 89C682 81.7 709 70.3 736.2 68.8C763.3 67.3 790.7 75.7 818 80C845.3 84.3 872.7 84.7 886.3 84.8L900 85L900 0L886.3 0C872.7 0 845.3 0 818 0C790.7 0 763.3 0 736.2 0C709 0 682 0 654.8 0C627.7 0 600.3 0 573 0C545.7 0 518.3 0 491 0C463.7 0 436.3 0 409 0C381.7 0 354.3 0 327 0C299.7 0 272.3 0 245.2 0C218 0 191 0 163.8 0C136.7 0 109.3 0 82 0C54.7 0 27.3 0 13.7 0L0 0Z" fill="#003ab1"></path><path d="M0 71L13.7 72.2C27.3 73.3 54.7 75.7 82 76.2C109.3 76.7 136.7 75.3 163.8 72.8C191 70.3 218 66.7 245.2 64.7C272.3 62.7 299.7 62.3 327 61.5C354.3 60.7 381.7 59.3 409 57.2C436.3 55 463.7 52 491 51.2C518.3 50.3 545.7 51.7 573 50.2C600.3 48.7 627.7 44.3 654.8 44.3C682 44.3 709 48.7 736.2 54.7C763.3 60.7 790.7 68.3 818 66.7C845.3 65 872.7 54 886.3 48.5L900 43L900 0L886.3 0C872.7 0 845.3 0 818 0C790.7 0 763.3 0 736.2 0C709 0 682 0 654.8 0C627.7 0 600.3 0 573 0C545.7 0 518.3 0 491 0C463.7 0 436.3 0 409 0C381.7 0 354.3 0 327 0C299.7 0 272.3 0 245.2 0C218 0 191 0 163.8 0C136.7 0 109.3 0 82 0C54.7 0 27.3 0 13.7 0L0 0Z" fill="#1d38c8"></path><path d="M0 23L13.7 24.5C27.3 26 54.7 29 82 29C109.3 29 136.7 26 163.8 27.3C191 28.7 218 34.3 245.2 35.5C272.3 36.7 299.7 33.3 327 32C354.3 30.7 381.7 31.3 409 29.7C436.3 28 463.7 24 491 26.8C518.3 29.7 545.7 39.3 573 44C600.3 48.7 627.7 48.3 654.8 43C682 37.7 709 27.3 736.2 25.8C763.3 24.3 790.7 31.7 818 34.7C845.3 37.7 872.7 36.3 886.3 35.7L900 35L900 0L886.3 0C872.7 0 845.3 0 818 0C790.7 0 763.3 0 736.2 0C709 0 682 0 654.8 0C627.7 0 600.3 0 573 0C545.7 0 518.3 0 491 0C463.7 0 436.3 0 409 0C381.7 0 354.3 0 327 0C299.7 0 272.3 0 245.2 0C218 0 191 0 163.8 0C136.7 0 109.3 0 82 0C54.7 0 27.3 0 13.7 0L0 0Z" fill="#3c31dd"></path></svg>